<?xml version="1.0" encoding="UTF-8" standalone="no"?>
<!-- Created with Inkscape (http://www.inkscape.org/) -->

<svg
   width="210mm"
   height="297mm"
   viewBox="0 0 210 297"
   version="1.1"
   id="svg1"
   xml:space="preserve"
   inkscape:version="1.4.2 (ebf0e940d0, 2025-05-08)"
   sodipodi:docname="logo.svg"
   xmlns:inkscape="http://www.inkscape.org/namespaces/inkscape"
   xmlns:sodipodi="http://sodipodi.sourceforge.net/DTD/sodipodi-0.dtd"
   xmlns:xlink="http://www.w3.org/1999/xlink"
   xmlns="http://www.w3.org/2000/svg"
   xmlns:svg="http://www.w3.org/2000/svg"><sodipodi:namedview
     id="namedview1"
     pagecolor="#505050"
     bordercolor="#eeeeee"
     borderopacity="1"
     inkscape:showpageshadow="0"
     inkscape:pageopacity="0"
     inkscape:pagecheckerboard="0"
     inkscape:deskcolor="#505050"
     inkscape:document-units="mm"
     inkscape:zoom="0.75187991"
     inkscape:cx="461.50987"
     inkscape:cy="506.72986"
     inkscape:window-width="1920"
     inkscape:window-height="1053"
     inkscape:window-x="0"
     inkscape:window-y="0"
     inkscape:window-maximized="1"
     inkscape:current-layer="layer1" /><defs
     id="defs1"><linearGradient
       id="linearGradient1"
       inkscape:collect="always"><stop
         style="stop-color:#00d4ff;stop-opacity:1;"
         offset="0"
         id="stop1" /><stop
         style="stop-color:#7c3aed;stop-opacity:1;"
         offset="1"
         id="stop2" /></linearGradient><linearGradient
       inkscape:collect="always"
       xlink:href="#linearGradient1"
       id="linearGradient2"
       x1="59.051127"
       y1="127.65952"
       x2="152.369"
       y2="127.65952"
       gradientUnits="userSpaceOnUse" /></defs><g
     inkscape:label="Layer 1"
     inkscape:groupmode="layer"
     id="layer1"><path
       style="fill:url(#linearGradient2);fill-opacity:1"
       d="m 89.146078,172.37004 c 0.618464,-0.35905 1.12448,-0.70104 1.12448,-0.75998 0,-0.0589 -0.773907,-0.10715 -1.719792,-0.10715 h -1.719792 v 0.94387 c 0,0.85693 0.05484,0.92694 0.595313,0.75998 0.327422,-0.10114 1.101328,-0.47767 1.719791,-0.83672 z m 35.326632,0.12506 c 0.072,-0.47294 0.0996,-0.89542 0.0613,-0.93884 -0.0383,-0.0434 -0.88236,-0.0434 -1.87569,0 l -1.80604,0.0789 1.57631,0.85284 c 0.86697,0.46907 1.6521,0.85602 1.74472,0.8599 0.0926,0.004 0.22734,-0.37991 0.29937,-0.85285 z m -30.497986,-3.77031 0.897555,-0.92604 h -4.020652 -4.020653 v 0.92604 0.92604 h 3.123098 3.123097 z m 30.579226,7.8e-4 -0.0199,-0.92527 -4.03101,-7.7e-4 -4.03101,-7.8e-4 0.9883,0.91888 0.9883,0.91888 3.06256,0.007 3.06256,0.007 z m -0.0466,-3.95729 0.0268,-0.9386 -5.65479,1.6e-4 c -6.21062,1.7e-4 -5.85719,-0.11428 -4.49413,1.45537 0.43155,0.49695 0.75277,0.52589 5.27744,0.47541 l 4.81792,-0.0537 z m -27.015587,-0.0122 0.738884,-0.92603 h -5.699821 -5.699822 v 0.92604 0.92604 l 4.960938,-1e-5 4.960937,-1e-5 z m 2.369971,-3.59498 c 0.254666,-0.44744 0.462776,-0.89317 0.462476,-0.99052 -3.1e-4,-0.0973 -3.036442,-0.17699 -6.746973,-0.17699 h -6.74642 l 9.4e-5,0.99219 9.3e-5,0.99218 6.283854,-0.002 6.283855,-0.002 z m 24.591846,-0.17532 -0.0945,-0.99219 h -6.69695 -6.69695 l 0.50601,0.99219 0.50602,0.99218 h 6.28546 6.28547 z m -22.68041,-3.75718 c 0.22202,-0.42933 0.40367,-0.84605 0.40367,-0.92604 0,-0.08 -5.367737,-0.14543 -11.928301,-0.14543 -6.560564,0 -11.884791,-0.0893 -11.831615,-0.19844 0.05318,-0.10914 0.260804,-0.52586 0.461394,-0.92604 l 0.364708,-0.7276 h 11.810629 11.810625 l 0.31774,-0.87868 c 0.17475,-0.48328 0.31771,-0.92976 0.31768,-0.99219 -4e-5,-0.0624 -5.030427,-0.0872 -11.17865,-0.0551 -6.148223,0.0321 -11.323102,0.008 -11.49973,-0.0542 -0.241195,-0.0845 -0.251218,-0.31313 -0.04026,-0.91828 l 0.280879,-0.80573 H 92.38071 c 12.14856,0 11.66853,0.0555 12.01361,-1.38906 l 0.17382,-0.72761 H 93.155156 81.742173 l 0.159538,-0.59531 c 0.08775,-0.32742 0.161163,-0.74414 0.16315,-0.92604 0.0028,-0.25939 2.451684,-0.33073 11.352389,-0.33073 12.25284,0 11.66997,0.067 11.66997,-1.34175 0,-0.48772 -0.38527,-0.50703 -11.443225,-0.57367 l -11.443229,-0.069 v -0.92604 -0.92604 l 23.268654,-0.0676 c 13.66285,-0.0397 23.36768,0.0314 23.50853,0.17229 0.13194,0.13194 0.15885,0.60884 0.0598,1.05979 l -0.18008,0.8199 H 117.4733 c -10.27235,0 -11.36868,0.0409 -11.22377,0.41851 0.0883,0.23018 0.1606,0.6469 0.1606,0.92604 0,0.49245 0.33809,0.50753 11.37708,0.50753 11.039,0 11.37709,0.0151 11.37709,0.50753 0,0.27914 0.0723,0.69586 0.1606,0.92604 0.14489,0.37759 -0.94161,0.41851 -11.1125,0.41851 -12.24024,0 -11.59387,-0.0844 -11.01507,1.43799 l 0.25804,0.67868 h 11.32562 11.32563 l 0.30525,0.80871 c 0.23311,0.61759 0.23119,0.83641 -0.008,0.92594 -0.17236,0.0645 -5.28427,0.0875 -11.35979,0.0512 -8.37423,-0.0501 -11.04639,0.01 -11.04636,0.24746 3e-5,0.17242 0.1157,0.61767 0.25704,0.98943 l 0.25698,0.67592 11.66003,0.0689 11.66003,0.0689 0.54438,0.85989 0.54439,0.8599 H 121.1205 c -7.30181,0 -11.79994,0.0961 -11.79994,0.25213 0,0.13868 0.13997,0.55933 0.31104,0.93479 l 0.31103,0.68266 14.04261,-0.0749 14.04261,-0.0749 1.40057,-0.63284 c 1.73279,-0.78296 3.01958,-2.24462 3.4473,-3.91579 0.50313,-1.96581 0.0695,-3.43073 -1.95504,-6.60513 -0.47852,-0.75029 -0.79931,-1.4349 -0.71286,-1.52135 0.0865,-0.0865 0.93334,-0.15718 1.88197,-0.15718 2.014,0 2.94952,-0.60759 2.94952,-1.9156 0,-1.69978 -0.19669,-1.78857 -3.96245,-1.78857 -1.87806,0 -3.48383,-0.11193 -3.56839,-0.24874 -0.3088,-0.49965 1.46535,-2.06336 3.30105,-2.90949 1.0335,-0.47636 2.73542,-1.01041 3.78204,-1.18676 1.04663,-0.17635 1.90082,-0.43173 1.8982,-0.56751 -0.003,-0.13578 -0.17289,-0.68651 -0.37839,-1.22385 -0.32383,-0.84679 -0.51712,-1.00081 -1.45044,-1.15577 -2.47042,-0.41016 -3.47704,-1.62397 -3.25585,-3.92596 0.11739,-1.22169 0.0499,-1.43715 -0.75869,-2.42398 -1.93168,-2.35737 -2.28639,-5.03011 -1.06516,-8.02606 0.70476,-1.72891 2.20158,-4.26668 2.5091,-4.254 0.094,0.004 0.87824,2.1315 1.74283,4.72806 l 1.57197,4.72102 -1.69962,1.91238 -1.69962,1.91237 0.85943,0.7679 c 1.09389,0.97739 2.41372,1.01113 3.89378,0.0995 1.15455,-0.71111 1.97146,-0.82622 2.45213,-0.34555 0.23562,0.23563 0.55492,0.23534 1.34445,-10e-4 1.20552,-0.36119 1.57005,-0.7299 1.76794,-1.78822 0.15589,-0.83369 0.0105,-1.10369 -2.07506,-3.85288 -1.21343,-1.59956 -3.98847,-6.3737 -6.35822,-10.93857 -1.00936,-1.94433 -1.1121,-2.33209 -1.26191,-4.7625 -0.16045,-2.60307 -0.19513,-2.71425 -2.14549,-6.87917 -2.87954,-6.149121 -2.91608,-6.217705 -3.3129,-6.217705 -0.1996,0 -0.76443,0.863203 -1.25515,1.91823 -1.38437,2.976286 -2.9105,4.986285 -5.52689,7.279255 -0.54715,0.47952 -1.16056,1.36144 -1.3802,1.98438 -0.21744,0.61669 -0.79421,1.53798 -1.28172,2.0473 -0.57172,0.59731 -1.04616,1.48752 -1.33649,2.5077 -0.67339,2.36619 -2.0126,4.02373 -3.78921,4.6899 -0.70606,0.26475 -0.84243,0.43203 -0.70497,0.8648 0.0937,0.29511 0.23371,1.49991 0.31105,2.67734 0.11858,1.80519 0.0528,2.33929 -0.41951,3.40707 -0.30808,0.69646 -0.56014,1.29632 -0.56014,1.33301 0,0.0367 1.45851,0.12588 3.24114,0.19819 3.23327,0.13116 5.42816,0.6284 6.27441,1.42143 0.32911,0.30841 -0.51525,0.36306 -5.60925,0.36306 -4.60073,0 -6.04593,0.0792 -6.20826,0.34025 -0.11637,0.18714 -0.55506,0.60385 -0.97487,0.92604 l -0.76328,0.5858 h 7.81986 7.81987 l 0.17292,0.78729 c 0.0951,0.43301 0.0991,0.90669 0.009,1.05261 -0.10627,0.17195 -3.37397,0.23324 -9.28589,0.17415 l -9.12191,-0.0912 -1.11861,1.01208 -1.11861,1.01207 10.35148,0.0108 10.35148,0.0109 -0.17582,0.85989 -0.17582,0.8599 -11.11869,0.069 -11.1187,0.069 -0.8948,0.9232 -0.89481,0.92321 h 11.56127 c 7.15056,0 11.56128,0.0962 11.56128,0.25214 0,0.13867 -0.13817,0.55539 -0.30705,0.92604 l -0.30705,0.67391 h -11.73538 -11.73538 l -0.52429,0.85989 c -0.28836,0.47294 -0.52473,0.94919 -0.52528,1.05834 -5.4e-4,0.10914 5.2973,0.19843 11.77297,0.19843 6.47568,0 11.77396,0.0418 11.77396,0.0928 0,0.051 -0.13071,0.46777 -0.29046,0.92604 l -0.29047,0.83324 H 105.63298 81.624247 l -0.307053,-0.67391 c -0.16888,-0.37065 -0.307053,-0.78737 -0.307053,-0.92604 0,-0.15606 4.537063,-0.25214 11.90625,-0.25214 6.548438,0 11.905809,-0.0893 11.905259,-0.19843 -5.4e-4,-0.10915 -0.23692,-0.5854 -0.52528,-1.05834 l -0.52428,-0.85989 H 91.868741 79.965396 l -0.412922,-0.79851 c -0.326078,-0.63056 -0.341419,-0.82529 -0.07294,-0.92586 0.18699,-0.07 5.447299,-0.1572 11.689575,-0.19368 l 11.349591,-0.0663 -0.72363,-0.85989 -0.72364,-0.8599 H 89.865778 c -6.163112,0 -11.255754,-0.0893 -11.316983,-0.19844 -0.06123,-0.10914 -0.189244,-0.52449 -0.284476,-0.923 l -0.173151,-0.72456 10.521466,-0.0692 10.521465,-0.0692 -1.271741,-0.97456 -1.271742,-0.97457 -7.060752,0.14061 c -3.883414,0.0773 -8.05057,0.0582 -9.260346,-0.0426 l -2.199593,-0.18323 0.08105,-0.8349 0.08105,-0.8349 7.928633,-0.13229 7.928633,-0.1323 -1.043604,-0.85989 -1.043604,-0.8599 h -5.892842 c -3.573481,0 -5.892841,-0.0996 -5.892841,-0.25307 0,-0.13919 0.958646,-0.55591 2.130325,-0.92604 1.74171,-0.55021 2.658753,-0.67297 5.027083,-0.67297 1.593217,0 2.896759,-0.0344 2.896759,-0.0764 0,-0.042 -0.230944,-0.52933 -0.513207,-1.08297 -0.724023,-1.42013 -0.896157,-3.4381 -0.450105,-5.27669 0.33887,-1.39679 0.333342,-1.55614 -0.05899,-1.70046 -2.038018,-0.7497 -3.711017,-2.76526 -4.286518,-5.16421 -0.220858,-0.92065 -0.602761,-1.62231 -1.179142,-2.16643 -0.468867,-0.44262 -1.066196,-1.40703 -1.327398,-2.14313 -0.336744,-0.94899 -0.778541,-1.56479 -1.518555,-2.11667 -1.690747,-1.26088 -3.837807,-4.041383 -5.146826,-6.665279 -0.766879,-1.537189 -1.37626,-2.447396 -1.638527,-2.447396 -0.272966,0 -0.844734,0.939114 -1.651155,2.71198 -0.678477,1.491588 -1.803699,3.962135 -2.500493,5.490105 -1.187458,2.60392 -1.269907,2.92744 -1.314872,5.15937 -0.04621,2.29361 -0.09448,2.4689 -1.311504,4.7625 -2.674237,5.03987 -5.478544,9.81342 -6.417862,10.92462 -1.502005,1.77685 -1.902767,2.49446 -1.904284,3.40983 -0.0023,1.36579 2.107507,2.66462 3.209951,1.97614 0.734621,-0.45878 1.330204,-0.36996 2.401742,0.35816 1.357475,0.92243 2.845967,0.89721 3.924539,-0.0665 l 0.814722,-0.72796 -1.704461,-1.98964 -1.704461,-1.98965 1.598574,-4.73415 1.598573,-4.73415 0.632772,0.77102 c 1.396557,1.70169 2.720407,5.0355 2.720407,6.85073 0,1.57768 -0.675893,3.34465 -1.766957,4.61931 -0.864329,1.00977 -0.932563,1.20887 -0.803991,2.34595 0.255028,2.25546 -0.895649,3.80592 -3.066122,4.1314 -1.033851,0.15504 -1.201631,0.28759 -1.723396,1.36154 -0.653262,1.34461 -0.775576,1.23531 1.882884,1.68252 2.300405,0.38697 4.32756,1.28721 5.709102,2.53535 1.762406,1.59223 1.592639,1.71818 -2.31579,1.71818 -3.823374,0 -4.10698,0.12282 -4.10698,1.77861 0,1.42501 0.791694,1.92556 3.045561,1.92556 1.002525,0 1.822772,0.0739 1.822772,0.16434 0,0.0904 -0.61615,1.23195 -1.369223,2.5368 -1.072687,1.85864 -1.395346,2.68747 -1.489846,3.82701 -0.22564,2.72092 1.417949,4.93691 4.446569,5.99515 1.02146,0.35691 3.135055,0.41782 14.876018,0.42865 l 13.685392,0.0126 z M 74.131004,117.0478 c 0,-1.50233 -0.02211,-1.54904 -0.940668,-1.98707 -1.306686,-0.62311 -2.385258,-3.3536 -1.324709,-3.3536 2.071385,0 10.202877,2.94111 10.202877,3.69031 0,0.0917 -0.677726,0.57738 -1.506057,1.0794 -1.681337,1.019 -4.592623,2.09219 -5.703839,2.10263 -0.711113,0.007 -0.727604,-0.028 -0.727604,-1.53167 z m 60.721876,1.23914 c -1.28805,-0.29535 -5.20648,-2.35551 -5.36081,-2.8185 -0.16696,-0.50086 3.91391,-2.30954 6.9639,-3.08647 3.52152,-0.89705 3.64189,-0.89055 3.42468,0.18505 -0.23825,1.1798 -0.93195,2.10734 -1.92934,2.57969 -0.79656,0.37724 -0.8383,0.47215 -0.84375,1.91823 -0.006,1.70209 -0.0524,1.72701 -2.25468,1.222 z M 83.238,114.05419 c -0.323125,-0.52282 -4.887586,-2.52484 -8.397654,-3.68329 -3.753416,-1.23876 -4.070586,-1.49783 -4.319211,-3.52793 -0.138229,-1.12868 -0.10524,-1.22126 0.435189,-1.22126 2.365478,0 7.676136,2.36434 10.689753,4.75916 1.967689,1.56365 2.009927,1.62216 2.009927,2.78465 0,1.21571 -0.0933,1.41406 -0.418004,0.88867 z m 44.41959,-0.89746 c 0.12231,-1.19229 1.05185,-2.16861 3.75571,-3.94472 2.56049,-1.68195 3.9988,-2.35514 6.53128,-3.05692 2.81279,-0.77947 2.86143,-0.76705 2.86143,0.73067 0,1.91331 -0.42146,2.30325 -3.51472,3.25194 -3.26816,1.00232 -6.71441,2.39752 -8.13107,3.29182 -1.39222,0.87887 -1.6166,0.83814 -1.50263,-0.27279 z m -23.86306,11.73518 c -0.44833,-2.5792 -2.23094,-4.71829 -5.347352,-6.41667 -1.566572,-0.85375 -5.231587,-2.27019 -5.87408,-2.27019 -0.533836,0 0.504658,0.84745 3.342821,2.72787 3.642194,2.41312 5.472231,4.30881 6.677151,6.9167 0.49867,1.07933 0.91864,2.11904 0.93326,2.31048 0.0146,0.19144 0.13959,-0.12818 0.27772,-0.71026 0.16054,-0.67655 0.15711,-1.59931 -0.01,-2.55793 z m 5.42309,0.40961 c 1.03729,-2.19172 3.42512,-4.61829 6.19636,-6.2969 1.93137,-1.16988 3.773,-2.54638 3.61637,-2.70301 -0.20122,-0.20122 -3.77465,1.03195 -5.48593,1.89317 -4.23177,2.12968 -6.34021,5.34579 -5.89011,8.98446 0.14705,1.18872 0.18767,1.2531 0.41734,0.66146 0.13994,-0.3605 0.65563,-1.50312 1.14597,-2.53918 z m -0.52587,-12.88374 c 1.47875,-2.35539 2.64724,-4.3268 2.59664,-4.38091 -0.0506,-0.0541 -0.72242,0.25531 -1.49292,0.68759 -1.70116,0.95443 -3.1881,2.82499 -3.71014,4.66732 l -0.38481,1.35806 -0.33888,-1.2601 c -0.63686,-2.36812 -2.19881,-4.12407 -4.59902,-5.17025 l -0.75276,-0.32811 0.60541,0.99798 c 3.3747,5.56288 5.03192,8.06686 5.21666,7.88212 0.0941,-0.0941 1.38107,-2.09832 2.85982,-4.4537 z m -10.510233,1.86904 c -0.779086,-1.49723 -2.380247,-2.26995 -6.178277,-2.98164 -1.272421,-0.23843 -2.792502,-0.60251 -3.377957,-0.80907 l -1.064465,-0.37557 0.390991,0.59486 c 0.748238,1.13837 2.627872,2.02958 5.764501,2.73316 1.670113,0.37463 3.334226,0.83781 3.698028,1.02929 0.967728,0.50935 1.112823,0.47322 0.767179,-0.19103 z m 15.794773,0.21298 c 0.42254,-0.21027 1.95888,-0.63174 3.41409,-0.93659 3.69471,-0.774 5.53505,-1.63885 6.22311,-2.92451 0.25485,-0.47619 0.21963,-0.48164 -0.79597,-0.12332 -0.58443,0.2062 -1.80651,0.50339 -2.71571,0.66043 -3.17473,0.54832 -5.16393,1.28167 -6.14928,2.26702 -0.51028,0.51027 -0.92778,1.04287 -0.92778,1.18354 0,0.33173 0.0418,0.32618 0.95154,-0.12657 z M 95.297671,109.372 c 0,-0.28461 -1.034018,-1.2223 -1.75984,-1.5959 -0.313069,-0.16114 -1.741819,-0.47725 -3.175,-0.70246 -1.433182,-0.22521 -2.934282,-0.51914 -3.335778,-0.65318 -0.670861,-0.22398 -0.707651,-0.20197 -0.454174,0.27165 0.456598,0.85316 2.298465,1.59963 5.224017,2.11718 1.522605,0.26936 2.833945,0.55531 2.914088,0.63546 0.220105,0.2201 0.586687,0.17465 0.586687,-0.0727 z m 24.606249,-0.61614 c 2.75196,-0.52161 4.81314,-1.40123 5.11269,-2.18186 0.11923,-0.31071 0.0107,-0.33902 -0.56431,-0.14724 -0.39156,0.13058 -1.88452,0.42167 -3.3177,0.64688 -1.43319,0.22521 -2.86194,0.54132 -3.17501,0.70246 -1.27578,0.65668 -2.40272,2.12412 -1.29681,1.68866 0.25466,-0.10028 1.71317,-0.41928 3.24114,-0.7089 z m -19.34514,-4.70606 c 2.33564,-1.19156 3.37448,-3.33817 3.11818,-6.443312 -0.16914,-2.049275 -0.73583,-3.157474 -2.29867,-4.495205 -1.2886,-1.102999 -2.855917,-1.597842 -7.601369,-2.399955 -2.094263,-0.353989 -4.072003,-0.836452 -4.453497,-1.086417 -0.90786,-0.594853 -1.132595,-0.310724 -0.465998,0.589152 0.871758,1.176836 2.097392,1.844772 4.266112,2.324911 5.129474,1.13563 6.173289,1.489116 7.082722,2.398554 1.40192,1.401915 1.74541,3.21447 1.05179,5.550152 -0.42131,1.41869 -1.634777,2.8005 -2.867446,3.26523 -0.408939,0.15417 -0.669803,0.3996 -0.579698,0.54539 0.266007,0.43041 1.665122,0.30388 2.747874,-0.2485 z m 12.95343,0.28037 c 0.2572,-0.16301 0.0376,-0.3788 -0.79604,-0.78238 -2.03227,-0.98381 -3.17712,-3.549738 -2.75674,-6.178633 0.39641,-2.479005 1.77871,-3.404369 6.64657,-4.449457 1.99186,-0.427635 3.99482,-0.995514 4.45103,-1.261954 0.7481,-0.436912 2.02189,-1.973404 2.02189,-2.438871 0,-0.101749 -0.56555,0.0897 -1.25677,0.42544 -0.73978,0.359324 -2.61728,0.828917 -4.56406,1.141542 -4.17535,0.670501 -5.71849,1.133817 -7.09327,2.129701 -2.073,1.501675 -3.09936,4.834303 -2.31732,7.524422 0.79266,2.72667 4.01212,4.9376 5.66471,3.89019 z m -23.241622,-2.28964 c 0,-0.0779 -0.171401,-0.4053 -0.38089,-0.72761 -0.20949,-0.3223 -0.758094,-1.5385 -1.219121,-2.702666 -3.153265,-7.962497 -6.731056,-11.212348 -12.372376,-11.238324 -1.575205,-0.0073 -1.648347,0.363966 -0.12254,0.621928 2.168978,0.366702 5.0896,2.334754 7.282968,4.907606 1.218854,1.429733 3.851622,6.243779 3.569156,6.526245 -0.428054,0.428054 -4.741476,-2.187299 -7.04564,-4.271975 -1.206904,-1.091938 -1.394975,-1.189411 -1.229297,-0.637117 0.607546,2.02527 2.443882,4.068083 4.898092,5.448833 2.008719,1.13011 6.619648,2.57412 6.619648,2.07308 z m 33.295462,-0.3937 c 4.09306,-1.13425 7.37176,-3.367112 8.6188,-5.869597 0.98524,-1.977122 0.85452,-2.116867 -0.6547,-0.699929 -2.12742,1.997323 -6.61138,4.799538 -7.02235,4.388562 -0.0909,-0.0909 0.32328,-1.174612 0.9204,-2.408255 2.20114,-4.547562 5.89079,-8.043937 9.4285,-8.934612 2.19944,-0.553743 2.04869,-0.840125 -0.34307,-0.651745 -3.27114,0.257642 -4.88176,0.963428 -6.9488,3.045011 -1.80901,1.821741 -3.09257,4.001978 -4.76513,8.093989 -0.47583,1.164166 -1.02439,2.351516 -1.21901,2.638556 -0.73894,1.08985 -0.6068,1.11634 1.98536,0.39802 z M 96.992665,96.960892 c 0.522945,-0.479243 0.950809,-0.92928 0.950809,-1.000082 0,-0.253521 -1.575928,-0.122659 -2.256351,0.187363 -0.719084,0.327636 -1.447815,1.444642 -1.447815,2.219224 0,0.244712 0.260851,0.866996 0.579668,1.382854 l 0.579669,0.937919 0.321606,-1.427961 c 0.240763,-1.069016 0.560611,-1.646998 1.272414,-2.299317 z m 20.264405,1.399471 c -5.4e-4,-0.29915 -0.23299,-0.924402 -0.51655,-1.389449 -0.53609,-0.879216 -1.66877,-1.293443 -2.95353,-1.080125 l -0.62997,0.104599 0.6663,0.32976 c 0.93513,0.462802 1.86712,1.925583 2.03785,3.198436 l 0.1446,1.078076 0.62614,-0.848694 c 0.34438,-0.466782 0.6257,-1.093453 0.62516,-1.392603 z m -9.08978,-10.657084 c 1.94171,-1.72894 3.58551,-2.167693 9.22306,-2.461758 5.85776,-0.305551 6.87043,-0.43924 8.10745,-1.070319 0.82584,-0.421314 2.07901,-1.734483 2.07901,-2.178552 0,-0.07243 -0.56555,0.04382 -1.25677,0.258335 -0.81023,0.251453 -3.32496,0.47401 -7.07761,0.626379 -6.47129,0.262753 -8.69092,0.571376 -10.45104,1.453138 -1.3936,0.698151 -1.93715,1.24844 -2.62019,2.652699 l -0.49946,1.02684 -0.42654,-1.020843 c -0.23459,-0.561464 -0.75306,-1.308784 -1.15215,-1.660711 -1.9602,-1.728553 -3.88762,-2.137605 -11.471474,-2.434567 -4.131439,-0.161775 -6.605089,-0.373652 -7.444248,-0.637627 -1.429381,-0.449641 -1.538229,-0.29306 -0.584331,0.840584 1.13179,1.345056 2.91464,1.820565 7.546992,2.012878 5.192542,0.215571 7.452302,0.537806 9.110781,1.299173 1.88874,0.867077 2.9122,1.827624 3.73142,3.502044 l 0.71574,1.462935 0.60726,-1.276643 c 0.33399,-0.702154 1.17194,-1.779447 1.8621,-2.393985 z m -26.675839,-2.52068 c -0.354663,-0.472942 -1.321429,-1.201687 -2.14837,-1.619433 -1.243354,-0.628105 -1.821781,-0.756543 -3.34267,-0.742232 -1.9705,0.01854 -3.044562,0.415452 -4.227215,1.562132 l -0.684931,0.664097 0.661459,-0.177395 c 0.363802,-0.09757 1.626765,-0.24653 2.806584,-0.331028 2.258508,-0.161753 5.39339,0.355704 6.718416,1.10897 0.928476,0.527831 0.94107,0.500802 0.216727,-0.465111 z m 54.022859,-0.573992 c 1.52797,-0.01173 3.25272,0.07864 3.83277,0.200824 1.05333,0.221866 1.05403,0.221459 0.56035,-0.324053 -2.00905,-2.219975 -6.97616,-2.19418 -9.37506,0.04869 -1.35116,1.263276 -1.1912,1.48284 0.55929,0.767705 1.38241,-0.56476 2.08732,-0.675242 4.42265,-0.693163 z"
       id="path1"
       sodipodi:nodetypes="ssscssscsscscccccccccccccccccccccccsscccccccccccccsscccccccccccccccssssscccssscscsscccssssccccssscsssssssscccsscsscccccssscccsssssssssscssscscscccssscssssssssssssssssssssscccscscccccccccccssscccssssscccssssscccscscccsssccccccccccccccssssssssssssssssssscssscccccsssssssssssssssscsssssscsssssscssssssssssssssscssssssccssssssssssscsscsssssscssssssssssssssssssssssssssssssssssssssssscsssssssssssscssssssssssssssssssssssscssssscsscsssssssssscsssssssscsssssscsssssssssss" /></g></svg>
